<svg xmlns="http://www.w3.org/2000/svg" xmlns:xlink="http://www.w3.org/1999/xlink" viewBox="0 0 298.98 326.53"><defs><style>.cls-1{fill:url(#linear-gradient);}.cls-2{fill:url(#linear-gradient-2);}.cls-3{fill:url(#linear-gradient-3);}.cls-4{fill:url(#linear-gradient-4);}.cls-5{fill:url(#linear-gradient-5);}.cls-6{fill:url(#linear-gradient-6);}.cls-7{fill:#fff;}.cls-8{fill:#36edff;}</style><linearGradient id="linear-gradient" x1="150.95" y1="197.27" x2="449.94" y2="197.27" gradientUnits="userSpaceOnUse"><stop offset="0.3" stop-color="#6affe8"/><stop offset="0.7" stop-color="#ff007a"/></linearGradient><linearGradient id="linear-gradient-2" x1="230.86" y1="232.35" x2="175.2" y2="135.96" gradientUnits="userSpaceOnUse"><stop offset="0" stop-color="aqua"/><stop offset="0.25" stop-color="#00b3ff"/><stop offset="0.52" stop-color="#0067ff"/><stop offset="0.74" stop-color="#002fff"/><stop offset="0.91" stop-color="#000dff"/><stop offset="1" stop-color="blue"/></linearGradient><linearGradient id="linear-gradient-3" x1="94.55" y1="273.74" x2="94.55" y2="93.48" xlink:href="#linear-gradient-2"/><linearGradient id="linear-gradient-4" x1="65.05" y1="47.86" x2="228.37" y2="142.15" gradientUnits="userSpaceOnUse"><stop offset="0" stop-color="#05ffc5"/><stop offset="0.33" stop-color="#04ffd4"/><stop offset="0.95" stop-color="#00fffc"/><stop offset="1" stop-color="aqua"/></linearGradient><linearGradient id="linear-gradient-5" x1="249.58" y1="294" x2="249.58" y2="145.65" gradientUnits="userSpaceOnUse"><stop offset="0" stop-color="aqua" stop-opacity="0"/><stop offset="0.17" stop-color="#01fff2" stop-opacity="0.23"/><stop offset="0.4" stop-color="#02ffe4" stop-opacity="0.5"/><stop offset="0.6" stop-color="#04ffd8" stop-opacity="0.71"/><stop offset="0.78" stop-color="#04ffcf" stop-opacity="0.87"/><stop offset="0.92" stop-color="#05ffca" stop-opacity="0.96"/><stop offset="1" stop-color="#05ffc8"/></linearGradient><linearGradient id="linear-gradient-6" x1="197.44" y1="254.43" x2="197.44" y2="191" gradientUnits="userSpaceOnUse"><stop offset="0" stop-color="#36edff"/><stop offset="0.23" stop-color="#4aefff"/><stop offset="0.31" stop-color="#65f1ff"/><stop offset="0.48" stop-color="#9cf6ff"/><stop offset="0.64" stop-color="#c7faff"/><stop offset="0.79" stop-color="#e5fdff"/><stop offset="0.91" stop-color="#f8feff"/><stop offset="1" stop-color="#fff"/></linearGradient></defs><g id="Layer_3" data-name="Layer 3"><path class="cls-1" d="M301,68l121,55V266L300,327,179,267l1-142L299,68m1.44-34-3.55,1.71L155.6,103.57,151,105.8V284.38l4.45,2.29,139.82,71.94,3.74,1.92,3.75-1.91,142.75-72.9,4.48-2.28V105.8l-4.66-2.23L304,35.71,300.44,34Z" transform="translate(-150.95 -34)"/><polygon class="cls-2" points="149 151.09 257.28 94.61 252.52 219.84 147.9 272.16 149 151.09"/><polygon class="cls-3" points="40.1 93.48 149 145.14 147.9 273.74 40.1 216.87 40.1 93.48"/><polygon class="cls-4" points="38.51 93.82 147.9 143.75 254.9 96.2 147.9 41.51 38.51 93.82"/><path class="cls-5" d="M297.06,212l-.59-22.37L237.6,162.75l-37.43-17.1V250.28l26.23-6.82c3.4-.7,5.87-1.5,5.87-1.5l2.22,18.62,45.33-59S284.73,277.35,299,294C299,270.22,297.06,212,297.06,212Z" transform="translate(-150.95 -34)"/><path d="M298.84,321,184.71,262.29V124.83L300,69.44l115.32,55.39V261.51ZM194.22,256.49l104.64,53.84,107-54.64V130.81L300,80,194.22,130.81Z" transform="translate(-150.95 -34)"/><path class="cls-6" d="M200.66,249.15l-.49,1.13V191h-5.95v61.92l5.43,1.51" transform="translate(-150.95 -34)"/><path class="cls-7" d="M299.38,182.91,194.22,131.24V191h5.95V145.65l33.29,16.65L237,170l3.59-5.32,55.88,25L299,295l2.23-107.73L406,132Z" transform="translate(-150.95 -34)"/><polygon class="cls-7" points="149.08 140.98 169.3 131.87 150.27 134.24 138.38 127.11 153.84 117.47 138.38 117.6 227.69 93.82 112.23 110.46 71.54 93.82 109.85 74.8 112.23 96.2 126.49 67.66 150.27 53.4 250.14 98.58 254.9 96.2 149.08 45.99 45.63 94.87 149.08 140.98"/><polygon class="cls-8" points="43.27 216.87 55.16 219.84 149.08 268.39 250.14 215.09 251.05 191 254.9 99.23 254.9 221.69 147.9 276.33 43.27 222.49 43.27 216.87"/><polygon points="40.89 96.2 148.42 148.91 257.28 96.2 254.9 93.82 149.08 140.98 43.27 93.82 40.89 96.2"/><path d="M299,331.48,175.67,268V119.4L300.33,59.52,425,119.4V267.16ZM186,261.73l113.11,58.19,115.66-59.06v-135L300.33,70.93,186,125.87Z" transform="translate(-150.95 -34)"/></g></svg>