<svg width="273" height="43" viewBox="0 0 273 43" fill="none" xmlns="http://www.w3.org/2000/svg">
<path d="M9.55469 42.4688C7.55469 42.4688 5.89062 42.0078 4.5625 41.0859C3.23438 40.1641 2.23438 38.8203 1.5625 37.0547C0.90625 35.2734 0.578125 33.125 0.578125 30.6094V12.6328C0.578125 10.7422 0.734375 9.03906 1.04688 7.52344C1.35938 6.00781 1.86719 4.71094 2.57031 3.63281C3.27344 2.55469 4.21094 1.72656 5.38281 1.14844C6.55469 0.570312 8 0.28125 9.71875 0.28125C11.2812 0.28125 12.6094 0.539062 13.7031 1.05469C14.8125 1.55469 15.7109 2.28125 16.3984 3.23438C17.1016 4.1875 17.6094 5.34375 17.9219 6.70312C18.25 8.04688 18.4141 9.5625 18.4141 11.25V16.9219H12.3438V11.6484C12.3438 9.61719 12.1719 8.125 11.8281 7.17188C11.4844 6.20312 10.7969 5.71875 9.76562 5.71875C8.625 5.71875 7.85938 6.24219 7.46875 7.28906C7.09375 8.32031 6.90625 9.76562 6.90625 11.625V30.8906C6.90625 32.3281 6.98438 33.5078 7.14062 34.4297C7.3125 35.3359 7.59375 36.0078 7.98438 36.4453C8.375 36.8672 8.92188 37.0781 9.625 37.0781C10.6875 37.0781 11.4062 36.5781 11.7812 35.5781C12.1562 34.5781 12.3438 32.9922 12.3438 30.8203V24.9141H18.5078V30.75C18.5078 33.3594 18.2031 35.5391 17.5938 37.2891C16.9844 39.0234 16.0156 40.3203 14.6875 41.1797C13.375 42.0391 11.6641 42.4688 9.55469 42.4688ZM32.5 42.4688C30.3594 42.4688 28.6094 42.0156 27.25 41.1094C25.9062 40.2031 24.9141 38.8594 24.2734 37.0781C23.6328 35.2969 23.3125 33.0938 23.3125 30.4688V11.6016C23.3125 9.22656 23.625 7.19531 24.25 5.50781C24.875 3.82031 25.8672 2.52344 27.2266 1.61719C28.5859 0.710937 30.3672 0.257812 32.5703 0.257812C34.2266 0.257812 35.625 0.515625 36.7656 1.03125C37.9062 1.54688 38.8281 2.29688 39.5312 3.28125C40.2344 4.25 40.7422 5.4375 41.0547 6.84375C41.3828 8.23438 41.5469 9.82031 41.5469 11.6016V30.4688C41.5469 33.0938 41.2344 35.2969 40.6094 37.0781C40 38.8594 39.0312 40.2031 37.7031 41.1094C36.375 42.0156 34.6406 42.4688 32.5 42.4688ZM32.5 37.0312C33.2812 37.0312 33.8672 36.7969 34.2578 36.3281C34.6484 35.8594 34.9062 35.1484 35.0312 34.1953C35.1719 33.2266 35.2422 32.0078 35.2422 30.5391V11.3203C35.2422 9.52344 35.0703 8.14062 34.7266 7.17188C34.3984 6.1875 33.6797 5.69531 32.5703 5.69531C31.4297 5.69531 30.6562 6.17188 30.25 7.125C29.8438 8.0625 29.6406 9.45312 29.6406 11.2969V30.5391C29.6406 32.0391 29.7031 33.2734 29.8281 34.2422C29.9688 35.1953 30.2422 35.8984 30.6484 36.3516C31.0703 36.8047 31.6875 37.0312 32.5 37.0312ZM55.9375 42.4688C53.7969 42.4688 52.0469 42.0156 50.6875 41.1094C49.3438 40.2031 48.3516 38.8594 47.7109 37.0781C47.0703 35.2969 46.75 33.0938 46.75 30.4688V11.6016C46.75 9.22656 47.0625 7.19531 47.6875 5.50781C48.3125 3.82031 49.3047 2.52344 50.6641 1.61719C52.0234 0.710937 53.8047 0.257812 56.0078 0.257812C57.6641 0.257812 59.0625 0.515625 60.2031 1.03125C61.3438 1.54688 62.2656 2.29688 62.9688 3.28125C63.6719 4.25 64.1797 5.4375 64.4922 6.84375C64.8203 8.23438 64.9844 9.82031 64.9844 11.6016V30.4688C64.9844 33.0938 64.6719 35.2969 64.0469 37.0781C63.4375 38.8594 62.4688 40.2031 61.1406 41.1094C59.8125 42.0156 58.0781 42.4688 55.9375 42.4688ZM55.9375 37.0312C56.7188 37.0312 57.3047 36.7969 57.6953 36.3281C58.0859 35.8594 58.3438 35.1484 58.4688 34.1953C58.6094 33.2266 58.6797 32.0078 58.6797 30.5391V11.3203C58.6797 9.52344 58.5078 8.14062 58.1641 7.17188C57.8359 6.1875 57.1172 5.69531 56.0078 5.69531C54.8672 5.69531 54.0938 6.17188 53.6875 7.125C53.2812 8.0625 53.0781 9.45312 53.0781 11.2969V30.5391C53.0781 32.0391 53.1406 33.2734 53.2656 34.2422C53.4062 35.1953 53.6797 35.8984 54.0859 36.3516C54.5078 36.8047 55.125 37.0312 55.9375 37.0312ZM70.7031 42V0.75H76.9844V36.6562H84.9297V42H70.7031ZM88.3281 42V0.75H102.156V6.16406H94.6094V18.1641H101.781V23.4609H94.6094V36.5859H102.438V42H88.3281ZM107.078 42V0.75H117.461C119.617 0.75 121.227 1.17188 122.289 2.01562C123.352 2.85938 124.047 4.09375 124.375 5.71875C124.719 7.34375 124.891 9.32812 124.891 11.6719C124.891 14.0938 124.641 16 124.141 17.3906C123.656 18.7656 122.656 19.6875 121.141 20.1562C121.859 20.2812 122.461 20.5781 122.945 21.0469C123.43 21.5 123.82 22.1719 124.117 23.0625C124.414 23.9375 124.625 25.0703 124.75 26.4609C124.891 27.8359 124.961 29.5234 124.961 31.5234C124.961 31.6797 124.961 32.1172 124.961 32.8359C124.961 33.5547 124.961 34.4062 124.961 35.3906C124.977 36.3594 124.992 37.3281 125.008 38.2969C125.023 39.2656 125.047 40.0938 125.078 40.7812C125.109 41.4688 125.148 41.875 125.195 42H118.914C118.867 41.9219 118.828 41.5234 118.797 40.8047C118.781 40.0703 118.758 39.1406 118.727 38.0156C118.711 36.8906 118.695 35.6797 118.68 34.3828C118.68 33.0859 118.68 31.8125 118.68 30.5625C118.68 29.2969 118.68 28.1797 118.68 27.2109C118.68 25.9766 118.586 25.0469 118.398 24.4219C118.227 23.7812 117.898 23.3359 117.414 23.0859C116.945 22.8359 116.266 22.6875 115.375 22.6406L113.359 22.5234V42H107.078ZM113.383 17.6484H115.891C116.656 17.6484 117.234 17.4766 117.625 17.1328C118.031 16.7891 118.305 16.1562 118.445 15.2344C118.602 14.3125 118.68 12.9844 118.68 11.25V10.9922C118.68 9.53906 118.609 8.42188 118.469 7.64062C118.328 6.85938 118.031 6.32031 117.578 6.02344C117.141 5.72656 116.453 5.57812 115.516 5.57812H113.383V17.6484ZM127.844 29.8594C127.844 28.8906 127.938 27.8125 128.125 26.625C128.344 25.4062 128.656 24.1875 129.062 22.9688C129.469 21.7188 129.969 20.5156 130.562 19.3594C131.188 18.1719 131.891 17.125 132.672 16.2188C133.484 15.2812 134.391 14.5312 135.391 13.9688C136.422 13.4062 137.547 13.125 138.766 13.125C139.641 13.125 140.375 13.2969 140.969 13.6406C141.594 13.9844 142.094 14.4375 142.469 15C142.844 15.5625 143.109 16.2031 143.266 16.9219C143.453 17.6094 143.547 18.3125 143.547 19.0312C142.859 19.0312 142.344 18.8281 142 18.4219C141.656 17.9844 141.328 17.5156 141.016 17.0156C140.734 16.4844 140.391 16.0156 139.984 15.6094C139.609 15.1719 139.031 14.9531 138.25 14.9531C137.219 14.9531 136.297 15.2344 135.484 15.7969C134.703 16.3594 134.016 17.0938 133.422 18C132.828 18.875 132.328 19.875 131.922 21C131.547 22.125 131.234 23.25 130.984 24.375C130.766 25.5 130.609 26.5938 130.516 27.6562C130.422 28.6875 130.375 29.5625 130.375 30.2812C130.25 31.3438 130.234 32.4531 130.328 33.6094C130.453 34.7344 130.719 35.7812 131.125 36.75C131.531 37.6875 132.125 38.4844 132.906 39.1406C133.688 39.7656 134.719 40.125 136 40.2188C136.812 40.2188 137.719 40.0938 138.719 39.8438C139.719 39.5625 140.703 39.25 141.672 38.9062C142.672 38.5312 143.625 38.1406 144.531 37.7344C145.438 37.2969 146.203 36.9219 146.828 36.6094V38.4375C146.797 38.4375 146.594 38.5156 146.219 38.6719C145.875 38.7969 145.406 38.9688 144.812 39.1875C144.25 39.4062 143.594 39.6406 142.844 39.8906C142.125 40.1406 141.406 40.4062 140.688 40.6875C139.969 40.9375 139.266 41.1875 138.578 41.4375C137.922 41.6562 137.359 41.8438 136.891 42C136.859 42 136.797 42 136.703 42C136.609 42.0312 136.531 42.0469 136.469 42.0469C134.75 42.0469 133.328 41.6875 132.203 40.9688C131.109 40.2188 130.234 39.2656 129.578 38.1094C128.922 36.9219 128.469 35.6094 128.219 34.1719C127.969 32.7031 127.844 31.2656 127.844 29.8594ZM150.578 10.5L152.359 40.2188C155.141 40.2188 157.922 40.0469 160.703 39.7031C163.516 39.3281 166.391 38.9844 169.328 38.6719L169.516 40.2188C169.484 40.2188 169.188 40.2656 168.625 40.3594C168.094 40.4219 167.375 40.5156 166.469 40.6406C165.594 40.7344 164.594 40.8438 163.469 40.9688C162.344 41.0938 161.219 41.2188 160.094 41.3438C158.969 41.4688 157.891 41.5938 156.859 41.7188C155.828 41.8438 154.938 41.9375 154.188 42C154.156 42 154.078 42 153.953 42C153.828 42.0312 153.688 42.0469 153.531 42.0469C153.375 42.0469 153.219 42.0469 153.062 42.0469C152.906 42.0469 152.781 42.0469 152.688 42.0469C152 42.0469 151.438 41.6875 151 40.9688C150.562 40.2188 150.203 39.2188 149.922 37.9688C149.641 36.6875 149.438 35.2344 149.312 33.6094C149.188 31.9531 149.094 30.2344 149.031 28.4531C148.969 26.6719 148.938 24.875 148.938 23.0625C148.969 21.25 148.984 19.5469 148.984 17.9531C148.984 16.3281 148.969 14.8594 148.938 13.5469C148.938 12.2344 148.891 11.2188 148.797 10.5H150.578ZM171.484 26.4375C171.484 25.4062 171.547 24.3125 171.672 23.1562C171.828 22 172.062 20.875 172.375 19.7812C172.719 18.6562 173.141 17.5938 173.641 16.5938C174.172 15.5625 174.797 14.6719 175.516 13.9219C176.266 13.1406 177.125 12.5312 178.094 12.0938C179.094 11.625 180.219 11.3906 181.469 11.3906C182.562 11.3906 183.531 11.7031 184.375 12.3281C185.219 12.9219 185.953 13.7188 186.578 14.7188C187.203 15.6875 187.719 16.7969 188.125 18.0469C188.531 19.2969 188.859 20.5625 189.109 21.8438C189.391 23.0938 189.578 24.3125 189.672 25.5C189.766 26.6562 189.812 27.6562 189.812 28.5C189.688 30.3438 189.422 32.0469 189.016 33.6094C188.609 35.1406 188.047 36.5 187.328 37.6875C186.641 38.8438 185.781 39.7969 184.75 40.5469C183.719 41.2969 182.469 41.7969 181 42.0469C179.594 42.0469 178.391 41.7969 177.391 41.2969C176.391 40.7969 175.531 40.1406 174.812 39.3281C174.094 38.5156 173.516 37.5781 173.078 36.5156C172.641 35.4531 172.297 34.3438 172.047 33.1875C171.828 32.0312 171.672 30.875 171.578 29.7188C171.516 28.5312 171.484 27.4375 171.484 26.4375ZM173.266 26.4375C173.266 27.1875 173.281 28.0312 173.312 28.9688C173.344 29.9062 173.422 30.8594 173.547 31.8281C173.703 32.7656 173.922 33.7031 174.203 34.6406C174.484 35.5469 174.859 36.3594 175.328 37.0781C175.828 37.7656 176.438 38.3281 177.156 38.7656C177.906 39.2031 178.797 39.4219 179.828 39.4219C181.328 39.5156 182.562 39.3281 183.531 38.8594C184.5 38.3906 185.281 37.6719 185.875 36.7031C186.469 35.7344 186.922 34.5625 187.234 33.1875C187.547 31.8125 187.797 30.25 187.984 28.5C187.984 27.8125 187.953 26.9531 187.891 25.9219C187.828 24.8906 187.703 23.8125 187.516 22.6875C187.359 21.5625 187.125 20.4375 186.812 19.3125C186.531 18.1562 186.141 17.125 185.641 16.2188C185.172 15.2812 184.594 14.5312 183.906 13.9688C183.25 13.4062 182.453 13.125 181.516 13.125C180.547 13.125 179.672 13.3594 178.891 13.8281C178.109 14.2656 177.406 14.8594 176.781 15.6094C176.188 16.3281 175.656 17.1562 175.188 18.0938C174.75 19.0312 174.391 20 174.109 21C173.828 21.9688 173.609 22.9375 173.453 23.9062C173.328 24.8438 173.266 25.6875 173.266 26.4375ZM191.5 16.5469L192.25 14.1094C192.281 14.0781 192.516 14.0469 192.953 14.0156C193.422 13.9531 194.031 13.8906 194.781 13.8281C195.531 13.7344 196.375 13.6406 197.312 13.5469C198.25 13.4531 199.203 13.3594 200.172 13.2656C201.172 13.1719 202.141 13.0781 203.078 12.9844C204.047 12.8906 204.938 12.7969 205.75 12.7031C205.75 12.7031 205.891 12.7031 206.172 12.7031C206.453 12.7031 206.766 12.7031 207.109 12.7031C207.453 12.7031 207.781 12.7031 208.094 12.7031C208.406 12.7031 208.609 12.7031 208.703 12.7031C209.453 12.7031 209.969 12.8438 210.25 13.125C210.531 13.4062 210.672 14.0156 210.672 14.9531L202.141 15.9375C202.078 17.9062 202.109 19.9688 202.234 22.125C202.359 24.2812 202.516 26.4688 202.703 28.6875C202.891 30.875 203.062 33.0469 203.219 35.2031C203.406 37.3594 203.5 39.4219 203.5 41.3906C203.5 41.6719 203.406 41.875 203.219 42C203.062 42.0938 202.859 42.1562 202.609 42.1875C202.391 42.2188 202.156 42.2031 201.906 42.1406C201.656 42.1094 201.438 42.0625 201.25 42C201.156 41.5938 201.062 40.8906 200.969 39.8906C200.875 38.8906 200.781 37.7188 200.688 36.375C200.594 35.0312 200.5 33.5781 200.406 32.0156C200.312 30.4531 200.219 28.8906 200.125 27.3281C200.031 25.7656 199.938 24.2812 199.844 22.875C199.75 21.4375 199.672 20.1875 199.609 19.125C199.547 18.0312 199.484 17.1875 199.422 16.5938C199.391 16 199.359 15.7812 199.328 15.9375L191.5 16.5469ZM210.391 32.5781C210.391 30.3281 210.391 28.2031 210.391 26.2031C210.422 24.2031 210.469 22.2344 210.531 20.2969C210.625 18.3281 210.734 16.3438 210.859 14.3438C210.984 12.3125 211.156 10.125 211.375 7.78125H212.734V25.7812H222.953C222.922 24.6562 222.906 23.4531 222.906 22.1719C222.906 20.8594 222.891 19.5469 222.859 18.2344C222.828 16.8906 222.797 15.5938 222.766 14.3438C222.766 13.0625 222.766 11.8594 222.766 10.7344C222.766 9.60938 222.766 8.625 222.766 7.78125C222.766 6.9375 222.766 6.28125 222.766 5.8125C222.859 5.8125 223.016 5.84375 223.234 5.90625C223.484 5.9375 223.719 6 223.938 6.09375C224.188 6.15625 224.406 6.26562 224.594 6.42188C224.781 6.54688 224.875 6.71875 224.875 6.9375V42.0469L223.422 41.7656C223.359 41.7656 223.312 41.5625 223.281 41.1562C223.25 40.75 223.219 40.25 223.188 39.6562C223.188 39.0312 223.172 38.3281 223.141 37.5469C223.141 36.7344 223.125 35.9531 223.094 35.2031C223.094 34.4219 223.078 33.6875 223.047 33C223.047 32.3125 223.047 31.7344 223.047 31.2656C223.047 30.8281 223.047 30.2344 223.047 29.4844C223.047 28.7344 223.031 27.875 223 26.9062L212.734 28.7344L212.641 42.0938H210.391C210.391 42.0625 210.391 41.8438 210.391 41.4375C210.391 41.0312 210.391 40.5312 210.391 39.9375C210.391 39.3125 210.391 38.6406 210.391 37.9219C210.391 37.1719 210.391 36.4531 210.391 35.7656C210.391 35.0781 210.391 34.4531 210.391 33.8906C210.391 33.3281 210.391 32.8906 210.391 32.5781ZM228.109 16.7812C228.609 16.0625 229.266 15.4531 230.078 14.9531C230.922 14.4219 231.844 13.9844 232.844 13.6406C233.875 13.2969 234.969 13.0312 236.125 12.8438C237.312 12.6562 238.469 12.5156 239.594 12.4219C240.719 12.3281 241.812 12.2656 242.875 12.2344C243.938 12.2031 244.875 12.1875 245.688 12.1875C245.75 12.1875 245.891 12.2031 246.109 12.2344C246.328 12.2344 246.562 12.25 246.812 12.2812C247.062 12.2812 247.281 12.2812 247.469 12.2812C247.688 12.2812 247.844 12.2812 247.938 12.2812C248.062 12.9688 247.984 13.4531 247.703 13.7344C247.453 13.9844 247.109 14.1406 246.672 14.2031C246.266 14.2344 245.828 14.2188 245.359 14.1562C244.891 14.0625 244.547 14.0469 244.328 14.1094C244.016 14.1406 243.516 14.2344 242.828 14.3906C242.172 14.5156 241.438 14.6719 240.625 14.8594C239.812 15.0156 238.938 15.2031 238 15.4219C237.094 15.6094 236.219 15.7969 235.375 15.9844C234.562 16.1406 233.828 16.2969 233.172 16.4531C232.516 16.6094 232.031 16.7188 231.719 16.7812C231.219 16.9688 230.938 17.2031 230.875 17.4844C230.812 17.7656 230.781 18.0938 230.781 18.4688C230.781 19.125 230.812 19.8594 230.875 20.6719C230.969 21.4844 231.062 22.2969 231.156 23.1094C231.281 23.8906 231.391 24.6094 231.484 25.2656C231.609 25.9219 231.688 26.4062 231.719 26.7188C231.844 26.75 232.078 26.7656 232.422 26.7656C232.766 26.7656 233 26.7656 233.125 26.7656C233.844 26.7656 234.547 26.7031 235.234 26.5781C235.922 26.4531 236.609 26.3125 237.297 26.1562C237.984 26 238.688 25.875 239.406 25.7812C240.125 25.6562 240.859 25.5938 241.609 25.5938V27.3281C241.297 27.3281 240.859 27.3594 240.297 27.4219C239.734 27.4531 239.109 27.5312 238.422 27.6562C237.766 27.7812 237.094 27.9219 236.406 28.0781C235.719 28.2031 235.094 28.3438 234.531 28.5C233.969 28.6562 233.5 28.8125 233.125 28.9688C232.781 29.125 232.609 29.2812 232.609 29.4375V39.1875C234.078 39.1875 235.531 39.1406 236.969 39.0469C238.438 38.9531 239.906 38.8594 241.375 38.7656C242.844 38.6406 244.312 38.5312 245.781 38.4375C247.25 38.3438 248.719 38.2969 250.188 38.2969C250.188 38.6719 250.062 38.9844 249.812 39.2344C249.562 39.4531 249.266 39.6406 248.922 39.7969C248.609 39.9219 248.266 40.0156 247.891 40.0781C247.516 40.1406 247.234 40.1875 247.047 40.2188C246.922 40.25 246.531 40.2969 245.875 40.3594C245.219 40.4219 244.406 40.5156 243.438 40.6406C242.469 40.7656 241.391 40.8906 240.203 41.0156C239.016 41.1406 237.844 41.2656 236.688 41.3906C235.531 41.5156 234.438 41.6406 233.406 41.7656C232.375 41.8594 231.516 41.9375 230.828 42C230.734 42.0312 230.594 42.0469 230.406 42.0469C230.406 37.8594 230.266 33.6406 229.984 29.3906C229.734 25.1094 229.109 20.9062 228.109 16.7812ZM253.562 38.4375C253.719 38.0625 253.953 37.8281 254.266 37.7344C254.609 37.6406 254.969 37.875 255.344 38.4375C255.344 38.5 255.484 38.5938 255.766 38.7188C256.078 38.8125 256.453 38.9375 256.891 39.0938C257.359 39.2188 257.891 39.3594 258.484 39.5156C259.109 39.6406 259.719 39.7656 260.312 39.8906C260.906 39.9844 261.484 40.0781 262.047 40.1719C262.609 40.2344 263.094 40.2656 263.5 40.2656C264.562 40.2656 265.531 40.0469 266.406 39.6094C267.312 39.1406 268.078 38.5469 268.703 37.8281C269.359 37.1094 269.859 36.2969 270.203 35.3906C270.547 34.4531 270.719 33.5 270.719 32.5312C270.719 32.25 270.672 31.7656 270.578 31.0781C270.484 30.3594 270.328 29.6562 270.109 28.9688C269.891 28.25 269.594 27.6094 269.219 27.0469C268.875 26.4844 268.453 26.2031 267.953 26.2031C264.703 26.5781 262.031 26.7344 259.938 26.6719C257.875 26.5781 256.234 26.3281 255.016 25.9219C253.797 25.5156 252.938 24.9688 252.438 24.2812C251.969 23.5625 251.719 22.75 251.688 21.8438C251.688 20.7188 251.969 19.6406 252.531 18.6094C253.094 17.5469 253.812 16.6094 254.688 15.7969C255.562 14.9844 256.531 14.3438 257.594 13.875C258.688 13.375 259.766 13.125 260.828 13.125C261.703 13.125 262.609 13.2344 263.547 13.4531C264.516 13.6719 265.406 14.0156 266.219 14.4844C267.031 14.9219 267.688 15.5156 268.188 16.2656C268.719 16.9844 268.984 17.8594 268.984 18.8906C268.234 18.8906 267.547 18.6875 266.922 18.2812C266.297 17.8438 265.672 17.3906 265.047 16.9219C264.422 16.4531 263.766 16.0156 263.078 15.6094C262.391 15.1719 261.594 14.9531 260.688 14.9531C259.938 14.9531 259.172 15.1406 258.391 15.5156C257.641 15.8906 256.953 16.375 256.328 16.9688C255.734 17.5625 255.234 18.2344 254.828 18.9844C254.453 19.7031 254.266 20.4531 254.266 21.2344C254.266 21.5469 254.266 21.8906 254.266 22.2656C254.297 22.6094 254.375 22.9531 254.5 23.2969C254.625 23.6094 254.812 23.875 255.062 24.0938C255.344 24.3125 255.734 24.4219 256.234 24.4219H268.844C269.375 24.4219 269.828 24.5938 270.203 24.9375C270.609 25.25 270.938 25.6562 271.188 26.1562C271.469 26.6562 271.688 27.2188 271.844 27.8438C272.031 28.4688 272.172 29.0781 272.266 29.6719C272.391 30.2656 272.469 30.8281 272.5 31.3594C272.531 31.8594 272.547 32.25 272.547 32.5312C272.547 33.75 272.375 34.9062 272.031 36C271.688 37.0625 271.172 38.0312 270.484 38.9062C269.797 39.75 268.938 40.4531 267.906 41.0156C266.875 41.5469 265.688 41.875 264.344 42C263.688 42.0625 262.828 42.0469 261.766 41.9531C260.734 41.8594 259.688 41.6875 258.625 41.4375C257.562 41.1562 256.562 40.7812 255.625 40.3125C254.688 39.8125 254 39.1875 253.562 38.4375Z" fill="black"/>
</svg>
